<svg class="svg-icon" style="width: 1em; height: 1em;vertical-align: middle;fill: red;overflow: hidden;" viewBox="0 0 1024 1024" version="1.1" xmlns="http://www.w3.org/2000/svg"><path d="M475.465338 201.142857l0 621.714286q0 14.848-10.825143 25.746286t-25.746286 10.825143-25.746286-10.825143l-190.317714-190.317714-149.723429 0q-14.848 0-25.746286-10.825143t-10.825143-25.746286l0-219.428571q0-14.848 10.825143-25.746286t25.746286-10.825143l149.723429 0 190.317714-190.317714q10.825143-10.825143 25.746286-10.825143t25.746286 10.825143 10.825143 25.746286zM694.893909 512q0 43.446857-24.283429 80.822857t-64.292571 53.394286q-5.705143 2.852571-14.262857 2.852571-14.848 0-25.746286-10.605714t-10.825143-25.965714q0-11.995429 6.875429-20.260571t16.603429-14.262857 19.456-13.165714 16.603429-20.260571 6.875429-32.548571-6.875429-32.548571-16.603429-20.260571-19.456-13.165714-16.603429-14.262857-6.875429-20.260571q0-15.433143 10.825143-25.965714t25.746286-10.605714q8.557714 0 14.262857 2.852571 40.009143 15.433143 64.292571 53.174857t24.283429 81.115429zM841.179624 512q0 87.405714-48.566857 161.426286t-128.585143 107.739429q-7.460571 2.852571-14.262857 2.852571-15.433143 0-26.258286-10.825143t-10.825143-25.746286q0-22.308571 22.308571-33.718857 32.036571-16.603429 43.446857-25.161143 42.276571-30.866286 65.974857-77.458286t23.698286-99.108571-23.698286-99.108571-65.974857-77.458286q-11.410286-8.557714-43.446857-25.161143-22.308571-11.410286-22.308571-33.718857 0-14.848 10.825143-25.746286t25.746286-10.825143q7.460571 0 14.848 2.852571 80.018286 33.718857 128.585143 107.739429t48.566857 161.426286zM987.465338 512q0 131.437714-72.557714 241.444571t-193.170286 162.011429q-7.460571 2.852571-14.848 2.852571-14.848 0-25.746286-10.825143t-10.825143-25.746286q0-20.553143 22.308571-33.718857 4.022857-2.267429 12.873143-5.997714t12.873143-5.997714q26.258286-14.262857 46.884571-29.110857 70.290286-52.004571 109.714286-129.682286t39.424-165.156571-39.424-165.156571-109.714286-129.682286q-20.553143-14.848-46.884571-29.110857-4.022857-2.267429-12.873143-5.997714t-12.873143-5.997714q-22.308571-13.165714-22.308571-33.718857 0-14.848 10.825143-25.746286t25.746286-10.825143q7.460571 0 14.848 2.852571 120.539429 52.004571 193.170286 162.011429t72.557714 241.444571z"  /></svg>